<svg width="0" height="0" class="hidden">
  <symbol fill="none" xmlns="http://www.w3.org/2000/svg" viewBox="0 0 26 26" id="location">
    <path d="M13.0016 14.4186C15.6902 14.4186 17.8766 12.2314 17.8766 9.54362C17.8766 6.85588 15.6902 4.66862 13.0016 4.66862C10.3131 4.66862 8.12663 6.85506 8.12663 9.54362C8.12663 12.2322 10.3131 14.4186 13.0016 14.4186ZM13.0016 5.48112C15.2425 5.48112 17.0641 7.30275 17.0641 9.54362C17.0641 11.7845 15.2425 13.6061 13.0016 13.6061C10.7608 13.6061 8.93913 11.7845 8.93913 9.54362C8.93913 7.30275 10.7608 5.48112 13.0016 5.48112ZM13 0C7.62288 0 3.25 4.31925 3.25 9.75081C3.25 15.4383 8.12581 21.2566 11.6805 25.3459C11.6935 25.3622 12.2639 26 12.9691 26C12.9707 26 13.0284 26 13.0317 26C13.7361 26 14.3073 25.3622 14.3203 25.3459C17.8766 21.2566 22.7516 15.4391 22.7516 9.75081C22.7516 4.31925 18.3779 0 13 0V0ZM13.0951 24.2799C13.078 24.2962 13.0284 24.3319 12.9854 24.3596C12.9773 24.3376 12.9171 24.2897 12.8806 24.2515C9.90275 20.8252 4.875 15.0426 4.875 9.75081C4.875 5.27069 8.52069 1.625 13 1.625C17.4817 1.625 21.1266 5.27069 21.1266 9.75163C21.1266 15.0426 16.0989 20.8252 13.0951 24.2799Z" fill="currentColor"></path>
  </symbol>
  <symbol fill="none" xmlns="http://www.w3.org/2000/svg" viewBox="0 0 26 26" id="bubble">
    <path d="M13 5.6875C13.2242 5.6875 13.4062 5.8695 13.4062 6.09375C13.4062 6.318 13.2234 6.5 13 6.5C8.67181 6.5 4.875 8.77825 4.875 11.375C4.875 11.5992 4.693 11.7812 4.46875 11.7812C4.2445 11.7812 4.0625 11.5992 4.0625 11.375C4.0625 8.29238 8.15506 5.6875 13 5.6875ZM13 1.625C5.81994 1.625 0 5.99056 0 11.375C0 14.7282 2.25794 17.6849 5.694 19.4399C5.694 19.4618 5.6875 19.4764 5.6875 19.5C5.6875 20.9568 4.59956 22.5249 4.121 23.348C4.12181 23.348 4.12262 23.348 4.12262 23.348C4.08444 23.4374 4.0625 23.5357 4.0625 23.6389C4.0625 24.0451 4.39156 24.375 4.79862 24.375C4.875 24.375 5.00906 24.3547 5.00581 24.3636C7.54487 23.9476 9.93687 21.6149 10.4926 20.9389C11.3043 21.0584 12.1412 21.125 13 21.125C20.1784 21.125 26 16.7594 26 11.375C26 5.99056 20.1793 1.625 13 1.625ZM13 19.5C12.2549 19.5 11.4904 19.4431 10.7283 19.3318C10.6494 19.3188 10.5706 19.3147 10.4926 19.3147C10.01 19.3147 9.54769 19.5293 9.2365 19.9079C8.88875 20.3312 7.89913 21.2761 6.72994 21.9708C7.04681 21.2436 7.29462 20.4287 7.31169 19.5886C7.31656 19.5366 7.319 19.4837 7.319 19.4391C7.319 18.8281 6.97694 18.2699 6.43338 17.992C3.42225 16.4547 1.625 13.9807 1.625 11.375C1.625 6.89488 6.7275 3.25 13 3.25C19.2709 3.25 24.375 6.89488 24.375 11.375C24.375 15.8551 19.2717 19.5 13 19.5Z" fill="currentColor"></path>
  </symbol>
  <symbol fill="none" xmlns="http://www.w3.org/2000/svg" viewBox="0 0 26 26" id="calendar">
    <g clip-path="url(#clip0_1_87)">
      <path d="M23.8339 2.4375H20.3125V0.8125C20.3125 0.363188 19.9493 0 19.5 0C19.0507 0 18.6875 0.363188 18.6875 0.8125V2.4375H13.8125V0.8125C13.8125 0.363188 13.4485 0 13 0C12.5515 0 12.1875 0.363188 12.1875 0.8125V2.4375H7.3125V0.8125C7.3125 0.363188 6.9485 0 6.5 0C6.0515 0 5.6875 0.363188 5.6875 0.8125V2.4375H2.16694C0.970125 2.4375 0 3.40681 0 4.60362V23.8331C0 25.0299 0.970125 26 2.16694 26H23.8339C25.0307 26 26 25.0299 26 23.8331V4.60362C26 3.40681 25.0307 2.4375 23.8339 2.4375ZM24.375 23.8331C24.375 24.1321 24.1321 24.375 23.8339 24.375H2.16694C1.86794 24.375 1.625 24.1321 1.625 23.8331V4.60362C1.625 4.30544 1.86794 4.0625 2.16694 4.0625H5.6875V5.6875C5.6875 6.13681 6.0515 6.5 6.5 6.5C6.9485 6.5 7.3125 6.13681 7.3125 5.6875V4.0625H12.1875V5.6875C12.1875 6.13681 12.5515 6.5 13 6.5C13.4485 6.5 13.8125 6.13681 13.8125 5.6875V4.0625H18.6875V5.6875C18.6875 6.13681 19.0507 6.5 19.5 6.5C19.9493 6.5 20.3125 6.13681 20.3125 5.6875V4.0625H23.8339C24.1321 4.0625 24.375 4.30544 24.375 4.60362V23.8331ZM5.6875 9.75H8.9375V12.1875H5.6875V9.75ZM5.6875 13.8125H8.9375V16.25H5.6875V13.8125ZM5.6875 17.875H8.9375V20.3125H5.6875V17.875ZM11.375 17.875H14.625V20.3125H11.375V17.875ZM11.375 13.8125H14.625V16.25H11.375V13.8125ZM11.375 9.75H14.625V12.1875H11.375V9.75ZM17.0625 17.875H20.3125V20.3125H17.0625V17.875ZM17.0625 13.8125H20.3125V16.25H17.0625V13.8125ZM17.0625 9.75H20.3125V12.1875H17.0625V9.75Z" fill="currentColor"></path>
    </g>
    <defs>
      <clipPath id="clip0_1_87">
        <rect width="26" height="26" fill="white"></rect>
      </clipPath>
    </defs>
  </symbol>
  <symbol fill="none" xmlns="http://www.w3.org/2000/svg" viewBox="0 0 26 26" id="mail">
    <path d="M22.75 4.0625H3.25C1.45519 4.0625 0 5.5185 0 7.3125V17.875C0 19.6698 1.45519 21.125 3.25 21.125H22.75C24.5448 21.125 26 19.6698 26 17.875V7.3125C26 5.5185 24.5448 4.0625 22.75 4.0625ZM1.625 8.32812L7.31169 12.5938L1.625 16.8594V8.32812ZM24.375 17.875C24.375 18.772 23.6454 19.5 22.75 19.5H3.25C2.35381 19.5 1.625 18.772 1.625 17.875L7.9885 13.1016L11.5375 15.7641C11.9706 16.0875 12.4849 16.2516 13 16.2516C13.5143 16.2516 14.0286 16.0883 14.4617 15.7641L18.0115 13.1016L24.375 17.875ZM24.375 16.8594L18.6875 12.5938L24.375 8.32812V16.8594ZM13.9742 15.1141C13.6906 15.327 13.3542 15.4391 13 15.4391C12.6458 15.4391 12.3086 15.3262 12.025 15.1141L1.625 7.3125C1.625 6.41631 2.35381 5.6875 3.25 5.6875H22.75C23.6454 5.6875 24.375 6.41631 24.375 7.3125L13.9742 15.1141Z" fill="currentColor"></path>
  </symbol>
  <symbol fill="none" xmlns="http://www.w3.org/2000/svg" viewBox="0 0 26 26" id="news">
    <g clip-path="url(#clip0_1_92)">
      <path d="M23.5625 0H5.6875C4.34119 0 3.25 1.09037 3.25 2.4375V4.0625H2.4375C1.09119 4.0625 0 5.15287 0 6.5V22.75C0 24.5448 1.45519 26 3.25 26H22.75C24.5448 26 26 24.5448 26 22.75V2.4375C26 1.09037 24.908 0 23.5625 0ZM24.375 22.75C24.375 23.6454 23.6454 24.375 22.75 24.375H3.25C2.35381 24.375 1.625 23.6454 1.625 22.75V6.5C1.625 6.0515 1.989 5.6875 2.4375 5.6875H3.25V21.9375C3.25 22.3868 3.61319 22.75 4.0625 22.75C4.51181 22.75 4.875 22.3868 4.875 21.9375V2.4375C4.875 1.989 5.239 1.625 5.6875 1.625H23.5625C24.0102 1.625 24.375 1.989 24.375 2.4375V22.75ZM15.8421 10.5666C15.6187 10.5666 15.4359 10.3846 15.4359 10.1603C15.4359 9.93606 15.6187 9.75406 15.8421 9.75406H22.3421C22.5672 9.75406 22.7484 9.93606 22.7484 10.1603C22.7484 10.3846 22.5672 10.5666 22.3421 10.5666H15.8421ZM15.8421 8.12906C15.6187 8.12906 15.4359 7.94706 15.4359 7.72281C15.4359 7.49856 15.6187 7.31656 15.8421 7.31656H22.3421C22.5672 7.31656 22.7484 7.49856 22.7484 7.72281C22.7484 7.94706 22.5672 8.12906 22.3421 8.12906H15.8421ZM15.8421 5.69156C15.6187 5.69156 15.4359 5.50956 15.4359 5.28531C15.4359 5.06106 15.6187 4.87906 15.8421 4.87906H22.3421C22.5672 4.87906 22.7484 5.06106 22.7484 5.28531C22.7484 5.50956 22.5672 5.69156 22.3421 5.69156H15.8421ZM13.4062 21.9408C13.6305 21.9408 13.8125 22.1236 13.8125 22.347C13.8125 22.5721 13.6297 22.7533 13.4062 22.7533H6.90625C6.682 22.7533 6.5 22.5721 6.5 22.347C6.5 22.1236 6.682 21.9408 6.90625 21.9408H13.4062ZM13.4062 19.5033C13.6305 19.5033 13.8125 19.6861 13.8125 19.9095C13.8125 20.1346 13.6297 20.3158 13.4062 20.3158H6.90625C6.682 20.3158 6.5 20.1346 6.5 19.9095C6.5 19.6861 6.682 19.5033 6.90625 19.5033H13.4062ZM13.4062 17.0658C13.6305 17.0658 13.8125 17.2486 13.8125 17.472C13.8125 17.6971 13.6297 17.8783 13.4062 17.8783H6.90625C6.682 17.8783 6.5 17.6971 6.5 17.472C6.5 17.2486 6.682 17.0658 6.90625 17.0658H13.4062ZM22.3438 21.9408C22.5672 21.9408 22.75 22.1236 22.75 22.347C22.75 22.5721 22.5672 22.7533 22.3438 22.7533H15.8438C15.6187 22.7533 15.4375 22.5721 15.4375 22.347C15.4375 22.1236 15.6187 21.9408 15.8438 21.9408H22.3438ZM22.3438 19.5033C22.5672 19.5033 22.75 19.6861 22.75 19.9095C22.75 20.1346 22.5672 20.3158 22.3438 20.3158H15.8438C15.6187 20.3158 15.4375 20.1346 15.4375 19.9095C15.4375 19.6861 15.6187 19.5033 15.8438 19.5033H22.3438ZM22.3438 17.0658C22.5672 17.0658 22.75 17.2486 22.75 17.472C22.75 17.6971 22.5672 17.8783 22.3438 17.8783H15.8438C15.6187 17.8783 15.4375 17.6971 15.4375 17.472C15.4375 17.2486 15.6187 17.0658 15.8438 17.0658H22.3438ZM22.3438 12.1908C22.5672 12.1908 22.75 12.3727 22.75 12.597C22.75 12.8212 22.5672 13.0033 22.3438 13.0033H6.90625C6.682 13.0033 6.5 12.8212 6.5 12.597C6.5 12.3727 6.682 12.1908 6.90625 12.1908H22.3438ZM22.3438 14.6283C22.5672 14.6283 22.75 14.8111 22.75 15.0345C22.75 15.2596 22.5672 15.4408 22.3438 15.4408H6.90625C6.682 15.4408 6.5 15.2596 6.5 15.0345C6.5 14.8111 6.682 14.6283 6.90625 14.6283H22.3438ZM7.3125 10.5625H13C13.4493 10.5625 13.8125 10.1993 13.8125 9.75V4.06575C13.8125 3.61644 13.4493 3.25325 13 3.25325H7.3125C6.86319 3.25325 6.5 3.61644 6.5 4.06575V9.75C6.5 10.1985 6.86319 10.5625 7.3125 10.5625ZM8.125 4.875H12.1875V8.9375H8.125V4.875Z" fill="currentColor"></path>
    </g>
    <defs>
      <clipPath id="clip0_1_92">
        <rect width="26" height="26" fill="white"></rect>
      </clipPath>
    </defs>
  </symbol>
  <symbol fill="none" xmlns="http://www.w3.org/2000/svg" viewBox="0 0 26 26" id="stack">
    <path d="M25.9382 14.9947L22.6866 2.80231C22.49 2.10925 21.8473 1.625 21.125 1.625H4.875C4.15188 1.625 3.51 2.10925 3.31337 2.80231L0.06175 14.9947C0.0203125 15.1426 0 15.2913 0 15.4375V21.125C0 22.9198 1.45519 24.375 3.25 24.375H22.75C24.5448 24.375 26 22.9198 26 21.125V15.4375C26 15.2913 25.9797 15.1426 25.9382 14.9947ZM24.375 21.125C24.375 22.0204 23.6454 22.75 22.75 22.75H3.25C2.35381 22.75 1.625 22.0204 1.625 21.125V15.4375L4.87581 3.24919H21.1234L24.375 15.4375V21.125ZM19.2904 4.875H6.70963C6.34156 4.875 6.019 5.12281 5.92394 5.47869L3.12488 15.2287C3.06069 15.4733 3.11188 15.7333 3.26625 15.9331C3.42062 16.133 3.65787 16.25 3.90975 16.25H7.62125L8.79694 18.6022C9.07319 19.1523 9.63544 19.5 10.2513 19.5H15.7487C16.3646 19.5 16.926 19.1523 17.2023 18.6022L18.3779 16.25H22.0894C22.3421 16.25 22.5802 16.1322 22.7337 15.9323C22.8873 15.7324 22.9385 15.4724 22.8751 15.2279L20.0761 5.47787C19.981 5.122 19.6584 4.875 19.2904 4.875ZM19.7283 14.625H18.3779C17.7588 14.625 17.2022 14.9679 16.9244 15.5228L15.7487 17.875H10.2513L9.07563 15.5228C8.79775 14.9679 8.24119 14.625 7.62206 14.625H4.33388L6.70963 5.6875H19.2904L21.6661 14.625H19.7283Z" fill="currentColor"></path>
  </symbol>
  <symbol fill="none" xmlns="http://www.w3.org/2000/svg" viewBox="0 0 26 26" id="study 1">
    <path d="M26 6.5C26 5.35763 25.2224 4.381 24.1101 4.12425L13.5371 1.68431C13.3599 1.6445 13.1796 1.625 13 1.625C12.8204 1.625 12.6401 1.6445 12.4516 1.68675L1.88987 4.12425C0.77675 4.381 0 5.35763 0 6.5C0 7.64237 0.777562 8.619 1.88906 8.87575L4.0625 9.37706V16.25C4.0625 18.4064 6.53088 20.3125 13 20.3125C19.4691 20.3125 21.9375 18.4064 21.9375 16.25V9.37706L24.1101 8.87575C25.2224 8.619 26 7.64237 26 6.5ZM20.3125 16.25C20.3125 17.1478 17.875 18.6875 13 18.6875C8.125 18.6875 5.6875 17.1478 5.6875 16.25V9.75244L12.4621 11.3157C12.6392 11.3555 12.8204 11.375 13 11.375C13.1796 11.375 13.3608 11.3555 13.5476 11.3132L20.3125 9.75244V16.25ZM13.1828 9.72969C13.1219 9.74269 13.0609 9.75 13 9.75C12.9391 9.75 12.8773 9.74269 12.8172 9.72969L2.25469 7.29219C1.88581 7.20688 1.625 6.87862 1.625 6.5C1.625 6.12138 1.88581 5.79313 2.25469 5.70781L12.8172 3.27031C12.8773 3.25731 12.9382 3.25 13 3.25C13.0618 3.25 13.1227 3.25731 13.1828 3.27031L23.7453 5.70781C24.1134 5.79313 24.375 6.12138 24.375 6.5C24.375 6.87862 24.1134 7.20688 23.7453 7.29219L13.1828 9.72969ZM23.5625 10.5625C23.5625 10.1132 23.9257 9.75 24.375 9.75C24.8235 9.75 25.1875 10.1132 25.1875 10.5625V17.875C25.1875 18.3243 24.8235 18.6875 24.375 18.6875C23.9257 18.6875 23.5625 18.3243 23.5625 17.875V10.5625ZM24.375 19.5C25.272 19.5 26 21.853 26 22.75C26 23.647 25.272 24.375 24.375 24.375C23.4772 24.375 22.75 23.647 22.75 22.75C22.75 21.853 23.4772 19.5 24.375 19.5Z" fill="currentColor"></path>
  </symbol>
</svg>

