<svg width="0" height="0" class="hidden">
  <symbol fill="none" xmlns="http://www.w3.org/2000/svg" viewBox="0 0 26 26" id="pen">
    <g clip-path="url(#clip0_1_144)">
      <path d="M23.8834 2.09625C22.5469 0.761312 20.787 0 19.0523 0C17.589 0 16.2419 0.54275 15.2579 1.52506L11.3035 5.50956C11.2913 5.52094 11.2775 5.52825 11.2653 5.54044C11.2588 5.54694 11.2548 5.55587 11.2483 5.56156L11.2499 5.56319L2.85756 14.0205C2.47081 14.4048 2.1905 14.8834 2.0345 15.4058L0.125938 22.3186C0.124312 22.3372 0 22.88 0 23.1562C0 24.726 1.27481 26 2.847 26C3.15981 26 3.76512 25.8505 3.78706 25.8472L10.6754 24.0362C11.1987 23.881 11.674 23.5982 12.0608 23.2107L24.4619 10.712C26.7174 8.45487 26.4631 4.67188 23.8834 2.09625ZM13.0114 19.3334C12.9447 18.6006 12.7376 17.8815 12.4272 17.199L20.1094 9.51762C20.579 11.0012 20.3377 12.5531 19.3083 13.5834C19.3018 13.5899 19.2936 13.5939 19.2879 13.6004L19.2993 13.611L13.0203 19.9404C13.0203 19.7381 13.0301 19.5398 13.0114 19.3334ZM12.0193 16.458C11.7163 15.9599 11.3717 15.4789 10.9452 15.0532C10.4487 14.5568 9.87919 14.1676 9.28444 13.8409L17.0292 6.09619C17.6369 6.36594 18.2195 6.75025 18.7338 7.26456C19.1734 7.7025 19.513 8.19325 19.7746 8.7035L12.0193 16.458ZM8.51987 13.4566C7.7675 13.1536 6.97937 12.9805 6.18962 12.9699L12.4483 6.66331C13.4062 5.72894 14.8013 5.46 16.1753 5.80044L8.51987 13.4566ZM3.38569 24.2718C3.29712 24.2921 3.02169 24.362 2.83481 24.375C2.16694 24.3669 1.625 23.8241 1.625 23.1562C1.63475 23.0198 1.68919 22.7849 1.70788 22.6996L2.56344 19.6007C3.49213 19.5756 4.4915 19.9371 5.27719 20.7244C6.07506 21.5207 6.45044 22.5396 6.40981 23.4796L3.38569 24.2718ZM7.21012 23.2676C7.19062 22.1772 6.747 21.0429 5.85162 20.1492C5.005 19.3018 3.89675 18.8126 2.79175 18.7688L3.601 15.8381C3.6595 15.6431 3.77569 15.4505 3.91869 15.2823C5.54856 14.1156 8.05513 14.4601 9.79631 16.2029C11.6383 18.044 11.9226 20.7415 10.504 22.3519C10.4097 22.4014 10.3147 22.4486 10.2123 22.4786L7.21012 23.2676ZM23.3114 9.56475L21.9432 10.9436C21.9432 10.7599 21.9651 10.5836 21.9481 10.3959C21.8051 8.82375 21.0722 7.30356 19.8819 6.11487C18.5583 4.7905 16.8033 4.03081 15.0654 4.02594L16.4109 2.66906C17.0844 1.99713 18.0245 1.625 19.0523 1.625C20.3596 1.625 21.7027 2.2165 22.7354 3.24594C23.7047 4.21362 24.2824 5.41613 24.3653 6.63244C24.4416 7.7675 24.0671 8.80831 23.3114 9.56475Z" fill="currentColor"></path>
    </g>
    <defs>
      <clipPath id="clip0_1_144">
        <rect width="26" height="26" fill="white"></rect>
      </clipPath>
    </defs>
  </symbol>
  <symbol fill="none" xmlns="http://www.w3.org/2000/svg" viewBox="0 0 26 26" id="page">
    <g clip-path="url(#clip0_1_140)">
      <path d="M25.5239 6.16281L20.6489 1.28781C20.3442 0.983125 19.9298 0.8125 19.5 0.8125H2.4375C1.09362 0.8125 0 1.90531 0 3.25V22.75C0 24.0939 1.09362 25.1875 2.4375 25.1875H23.5625C24.9064 25.1875 26 24.0939 26 22.75V7.3125C26 6.88106 25.8286 6.4675 25.5239 6.16281ZM24.375 22.75C24.375 23.1993 24.0118 23.5625 23.5625 23.5625H2.4375C1.98819 23.5625 1.625 23.1993 1.625 22.75V3.25C1.625 2.80069 1.98819 2.4375 2.4375 2.4375H18.6875V5.6875H18.6859C18.6859 7.03381 19.7779 8.125 21.1234 8.125H24.375V22.75ZM21.9359 7.3125H21.1234C20.228 7.3125 19.4984 6.58369 19.4984 5.6875H19.5V2.4375L24.375 7.3125H21.9359ZM12.5938 6.5C12.3695 6.5 12.1875 6.31881 12.1875 6.09375C12.1875 5.86869 12.3695 5.6875 12.5938 5.6875H16.6562C16.8797 5.6875 17.0625 5.8695 17.0625 6.09375C17.0625 6.318 16.8797 6.5 16.6562 6.5H12.5938ZM12.5938 8.9375C12.3695 8.9375 12.1875 8.7555 12.1875 8.53125C12.1875 8.307 12.3695 8.125 12.5938 8.125H16.6562C16.8797 8.125 17.0625 8.307 17.0625 8.53125C17.0625 8.7555 16.8797 8.9375 16.6562 8.9375H12.5938ZM12.1875 10.9688C12.1875 10.7437 12.3695 10.5625 12.5938 10.5625H22.3438C22.5672 10.5625 22.75 10.7445 22.75 10.9688C22.75 11.193 22.5672 11.375 22.3438 11.375H12.5938C12.3695 11.375 12.1875 11.193 12.1875 10.9688ZM22.3438 15.4375C22.5672 15.4375 22.75 15.6187 22.75 15.8438C22.75 16.0672 22.5672 16.25 22.3438 16.25H3.65625C3.432 16.25 3.25 16.0672 3.25 15.8438C3.25 15.6187 3.432 15.4375 3.65625 15.4375H22.3438ZM22.3438 17.875C22.5672 17.875 22.75 18.0562 22.75 18.2812C22.75 18.5047 22.5672 18.6875 22.3438 18.6875H3.65625C3.432 18.6875 3.25 18.5047 3.25 18.2812C3.25 18.0562 3.432 17.875 3.65625 17.875H22.3438ZM22.3438 20.3125C22.5672 20.3125 22.75 20.4937 22.75 20.7188C22.75 20.9422 22.5672 21.125 22.3438 21.125H3.65625C3.432 21.125 3.25 20.9422 3.25 20.7188C3.25 20.4937 3.432 20.3125 3.65625 20.3125H22.3438ZM22.3438 13C22.5672 13 22.75 13.182 22.75 13.4062C22.75 13.6305 22.5672 13.8125 22.3438 13.8125H3.65625C3.432 13.8125 3.25 13.6313 3.25 13.4062C3.25 13.1812 3.432 13 3.65625 13H22.3438ZM4.0625 11.375H9.75C10.1993 11.375 10.5625 11.0118 10.5625 10.5625V5.6875C10.5625 5.23819 10.1993 4.875 9.75 4.875H4.0625C3.61319 4.875 3.25 5.23819 3.25 5.6875V10.5625C3.25 11.011 3.61319 11.375 4.0625 11.375ZM4.875 6.5H8.9375V9.75H4.875V6.5Z" fill="currentColor"></path>
    </g>
    <defs>
      <clipPath id="clip0_1_140">
        <rect width="26" height="26" fill="white"></rect>
      </clipPath>
    </defs>
  </symbol>
  <symbol fill="none" xmlns="http://www.w3.org/2000/svg" viewBox="0 0 26 26" id="lab">
    <g clip-path="url(#clip0_1_136)">
      <path d="M16.804 3.03225C16.4197 2.64875 15.9103 2.4375 15.3675 2.4375C14.8248 2.4375 14.3153 2.64875 13.9294 3.03306L12.7838 4.18031C12.3995 4.56381 12.1874 5.07406 12.1874 5.61763C12.1874 6.00031 12.2922 6.36675 12.4888 6.68444L1.45753 11.1036C0.719782 11.4278 0.190844 12.0932 0.0421567 12.8822C-0.108156 13.676 0.143719 14.4901 0.719782 15.0654L11.0548 25.2866C11.5 25.7319 12.0915 25.9846 12.7163 25.9992C12.731 26 12.7651 26 12.7797 26C12.9438 26 13.1104 25.9829 13.2753 25.9496C14.083 25.7822 14.7443 25.2241 15.0442 24.4644L19.3845 13.5964C19.7112 13.8117 20.0955 13.9271 20.4952 13.9271C21.0396 13.9271 21.549 13.715 21.9317 13.3315L23.0749 12.1875C23.4625 11.8024 23.6745 11.2913 23.6745 10.7469C23.6745 10.2026 23.4617 9.69069 23.0798 9.31044L16.804 3.03225ZM13.5353 23.8607C13.4346 24.115 13.2128 24.3027 12.9447 24.3579C12.8829 24.3709 12.8203 24.3758 12.7586 24.375C12.5522 24.3701 12.3532 24.2873 12.2045 24.1378L1.86297 13.91C1.67284 13.7207 1.58916 13.4493 1.63953 13.1844C1.68909 12.9212 1.86622 12.6986 2.11241 12.5913L7.16372 10.5682C10.5673 11.7 13.9717 10.6096 17.3768 14.2423L13.5353 23.8607ZM21.9309 11.0337L20.782 12.1818C20.6236 12.3411 20.366 12.3411 20.2076 12.1818L18.7711 10.7461L17.6076 13.6622L17.7043 13.416C15.2587 10.9744 12.7732 10.6665 10.5307 10.3911C9.81003 10.3025 9.11128 10.2099 8.42472 10.062L15.3237 7.29869L13.9302 5.90525C13.7718 5.74681 13.7718 5.48925 13.9302 5.33081L15.0791 4.18112C15.2375 4.02269 15.4951 4.02269 15.6535 4.18112L21.9301 10.4593C22.091 10.6178 22.091 10.8753 21.9309 11.0337ZM13.4062 17.0625C14.5258 17.0625 15.4374 16.1517 15.4374 15.0312C15.4374 13.9108 14.5266 13 13.4062 13C12.2857 13 11.3749 13.9108 11.3749 15.0312C11.3749 16.1517 12.2865 17.0625 13.4062 17.0625ZM13.4062 13.8125C14.0789 13.8125 14.6249 14.3585 14.6249 15.0312C14.6249 15.704 14.0789 16.25 13.4062 16.25C12.7326 16.25 12.1874 15.704 12.1874 15.0312C12.1874 14.3585 12.7326 13.8125 13.4062 13.8125ZM23.9687 0C22.8482 0 21.9374 0.910813 21.9374 2.03125C21.9374 3.15169 22.8482 4.0625 23.9687 4.0625C25.0891 4.0625 25.9999 3.15169 25.9999 2.03125C25.9999 0.910813 25.0891 0 23.9687 0ZM23.9687 3.25C23.2959 3.25 22.7499 2.704 22.7499 2.03125C22.7499 1.3585 23.2959 0.8125 23.9687 0.8125C24.6414 0.8125 25.1874 1.3585 25.1874 2.03125C25.1874 2.704 24.6414 3.25 23.9687 3.25ZM6.49991 13.8125C6.49991 14.7087 7.22872 15.4375 8.12491 15.4375C9.02109 15.4375 9.74991 14.7087 9.74991 13.8125C9.74991 12.9163 9.02109 12.1875 8.12491 12.1875C7.22872 12.1875 6.49991 12.9163 6.49991 13.8125ZM8.12491 13C8.57341 13 8.93741 13.3632 8.93741 13.8125C8.93741 14.2618 8.57341 14.625 8.12491 14.625C7.67641 14.625 7.31241 14.2618 7.31241 13.8125C7.31241 13.3632 7.67641 13 8.12491 13ZM9.74991 18.6875C9.74991 18.239 10.1139 17.875 10.5624 17.875C11.0109 17.875 11.3749 18.239 11.3749 18.6875C11.3749 19.136 11.0109 19.5 10.5624 19.5C10.1139 19.5 9.74991 19.136 9.74991 18.6875ZM22.7499 6.5C22.7499 6.0515 23.1139 5.6875 23.5624 5.6875C24.0109 5.6875 24.3749 6.0515 24.3749 6.5C24.3749 6.9485 24.0109 7.3125 23.5624 7.3125C23.1139 7.3125 22.7499 6.9485 22.7499 6.5Z" fill="currentColor"></path>
    </g>
    <defs>
      <clipPath id="clip0_1_136">
        <rect width="26" height="26" fill="white"></rect>
      </clipPath>
    </defs>
  </symbol>
  <symbol fill="none" xmlns="http://www.w3.org/2000/svg" viewBox="0 0 26 26" id="wallet">
    <g clip-path="url(#clip0_1_132)">
      <path d="M13 16.25C13 15.3522 13.7272 14.625 14.625 14.625C15.5228 14.625 16.25 15.3522 16.25 16.25C16.25 17.1478 15.5228 17.875 14.625 17.875C13.7272 17.875 13 17.1478 13 16.25ZM23.5633 10.5625C23.5625 10.5625 23.5625 10.5625 23.5633 10.5625L23.5625 5.6875V3.25C23.5625 1.90369 22.4705 0.8125 21.125 0.8125H4.46875C2.00444 0.8125 0 2.81775 0 5.28125V21.5312C0 23.9948 2.00444 26 4.46875 26H19.0938C21.5573 26 23.5625 23.9948 23.5625 21.5312V20.3125C23.5625 20.3125 23.5625 20.3125 23.5633 20.3125C26.8117 17.8742 26.8117 13.0008 23.5633 10.5625ZM4.46875 2.4375H21.125C21.5727 2.4375 21.9375 2.8015 21.9375 3.25V8.2745C21.6824 8.1835 21.411 8.125 21.125 8.125H21.1242V4.0625C21.1242 3.61319 20.7602 3.25 20.3117 3.25H3.24919C2.80069 3.25 2.43669 3.61319 2.43669 4.0625V7.26619C1.93538 6.7535 1.625 6.05475 1.625 5.28125C1.625 3.71069 2.89738 2.4375 4.46875 2.4375ZM20.3117 4.875H3.24919V4.0625H20.3117V4.875ZM20.3117 5.6875V6.5H3.24919V5.6875H20.3117ZM20.3117 7.3125V8.125H4.46875C4.03 8.125 3.6205 8.01775 3.25 7.84062V7.3125H20.3117ZM21.9375 21.5312C21.9375 23.1018 20.6643 24.375 19.0938 24.375H4.46875C2.89738 24.375 1.625 23.1018 1.625 21.5312V8.72544C2.39769 9.36487 3.38894 9.75 4.46875 9.75H21.125C21.5727 9.75 21.9375 10.114 21.9375 10.5625V12.1875H14.625C12.3809 12.1875 10.5625 14.0059 10.5625 16.25C10.5625 18.4941 12.3817 20.3125 14.625 20.3125H21.9375V21.5312ZM22.9751 18.6875H14.625C13.2811 18.6875 12.1875 17.5939 12.1875 16.25C12.1875 14.9061 13.2811 13.8125 14.625 13.8125H21.9375C22.4388 13.806 22.9361 13.5631 23.2391 13.1592C23.3236 13.0455 23.3894 12.9179 23.4422 12.7847C23.4496 12.7668 23.4626 12.753 23.4691 12.7343C24.0532 13.5005 24.375 14.4397 24.375 15.4375C24.375 16.6871 23.8704 17.8466 22.9751 18.6875Z" fill="currentColor"></path>
    </g>
    <defs>
      <clipPath id="clip0_1_132">
        <rect width="26" height="26" fill="white"></rect>
      </clipPath>
    </defs>
  </symbol>
  <symbol fill="none" xmlns="http://www.w3.org/2000/svg" viewBox="0 0 26 26" id="eye">
    <g clip-path="url(#clip0_1_128)">
      <path d="M25.9716 12.818C25.9634 12.7839 25.9683 12.7473 25.9553 12.714C25.9504 12.7002 25.9383 12.6929 25.9334 12.6799C25.9253 12.6604 25.9269 12.6384 25.9163 12.6197C23.5601 8.10955 18.4308 4.87823 13.0195 4.87823C7.60744 4.87823 2.47894 8.10467 0.121063 12.614C0.1105 12.6327 0.112125 12.6547 0.104 12.6742C0.098313 12.6872 0.086938 12.6945 0.082063 12.7083C0.069063 12.7416 0.0739379 12.7782 0.065813 12.8123C0.051188 12.8732 0.0373755 12.9317 0.0373755 12.9943C0.0373755 13.0569 0.0520004 13.1145 0.065813 13.1763C0.0739379 13.2104 0.069063 13.247 0.082063 13.2803C0.086938 13.2941 0.0991255 13.3014 0.104 13.3144C0.112125 13.3339 0.1105 13.3559 0.121063 13.3745C2.47813 17.8847 7.60744 21.116 13.0195 21.116C18.4308 21.116 23.5601 17.8896 25.9163 13.3802C25.9277 13.3615 25.9261 13.3396 25.9334 13.3201C25.9383 13.3071 25.9504 13.2998 25.9553 13.286C25.9683 13.2527 25.9634 13.2161 25.9716 13.182C25.9854 13.1202 26 13.0617 26 13C26 12.9382 25.9854 12.8789 25.9716 12.818ZM13.0187 19.4902C8.4565 19.4902 3.99019 16.8975 1.76475 12.9943C4.00238 9.08617 8.46219 6.50242 13.0187 6.50242C17.5793 6.50242 22.0464 9.09592 24.2718 12.9984C22.0342 16.9073 17.5752 19.4902 13.0187 19.4902ZM13.0187 9.74917C13.2429 9.74917 13.4233 9.93036 13.4233 10.1554C13.4233 10.3789 13.2421 10.5609 13.0187 10.5609V10.5617C11.6748 10.5617 10.582 11.6545 10.582 12.9967C10.582 13.221 10.4 13.403 10.1766 13.403C9.95313 13.403 9.77031 13.221 9.77031 12.9967C9.77031 11.2052 11.2223 9.75323 13.0138 9.74998C13.0154 9.74998 13.0171 9.74917 13.0187 9.74917ZM13 7.31248C9.85806 7.31248 7.3125 9.85886 7.3125 13C7.3125 16.1411 9.85888 18.6875 13 18.6875C16.1403 18.6875 18.6875 16.1403 18.6875 13C18.6875 9.85805 16.1403 7.31248 13 7.31248ZM13 17.875C10.3114 17.875 8.125 15.6885 8.125 13C8.125 10.3114 10.3114 8.12498 13 8.12498C15.6886 8.12498 17.875 10.3114 17.875 13C17.875 15.6885 15.6886 17.875 13 17.875Z" fill="currentColor"></path>
    </g>
    <defs>
      <clipPath id="clip0_1_128">
        <rect width="26" height="26" fill="white"></rect>
      </clipPath>
    </defs>
  </symbol>
  <symbol fill="none" xmlns="http://www.w3.org/2000/svg" viewBox="0 0 26 26" id="log-out">
    <g clip-path="url(#clip0_1_121)">
      <path d="M17.8783 0C13.3908 0 9.75325 3.63838 9.75325 8.125C9.75325 9.16906 9.97181 10.1571 10.3326 11.0736L0.4615 20.9438C0.176313 21.2298 0 21.5012 0 21.9375V24.375C0 25.2444 0.754813 26 1.625 26H4.0625C4.498 26 4.77344 25.8253 5.05862 25.5417L6.22456 24.375H8.12825C9.02525 24.375 9.75325 23.647 9.75325 22.75V21.125H11.3783C12.2752 21.125 13.0033 20.397 13.0033 19.5V17.5955L14.9281 15.6691C15.8454 16.0306 16.8326 16.25 17.8783 16.25C22.3641 16.25 26.0033 12.6116 26.0033 8.125C26.0033 3.63838 22.3641 0 17.8783 0ZM17.8783 14.625C16.6757 14.625 15.561 14.2756 14.5949 13.7052L14.3154 13.9839L11.8536 16.4466C11.5489 16.7513 11.3774 17.1641 11.3774 17.5955V19.5H9.75244C8.85544 19.5 8.12744 20.2272 8.12744 21.125V22.75H6.22456C5.79394 22.75 5.38038 22.9214 5.07569 23.2261L3.92356 24.3783L1.62744 24.375L1.625 22.0594L11.1028 12.5986C11.1028 12.5986 11.1028 12.5994 11.1036 12.6003L12.2972 11.4067C11.7268 10.4406 11.3774 9.32669 11.3774 8.12419C11.3774 4.53456 14.2886 1.62419 17.8774 1.62419C21.4662 1.62419 24.3774 4.53456 24.3774 8.12419C24.3774 11.7138 21.4679 14.625 17.8783 14.625ZM22.6038 6.69419C21.6929 5.42506 20.5839 4.31763 19.3091 3.40031C19.1019 3.25 18.8337 3.21263 18.5924 3.29713C17.4639 3.69444 16.6912 4.46631 16.2963 5.59488C16.2662 5.67938 16.2516 5.76713 16.2516 5.85406C16.2516 6.01575 16.302 6.17581 16.3995 6.3115C17.3136 7.58225 18.421 8.6905 19.6926 9.60456C19.9006 9.75406 20.1671 9.79225 20.4084 9.70856C21.5386 9.31369 22.3113 8.54019 22.7078 7.41081C22.7378 7.32631 22.7524 7.23856 22.7524 7.15163C22.7516 6.98994 22.7004 6.82988 22.6038 6.69419ZM20.1663 8.94563C18.9654 8.08194 17.9197 7.03625 17.0625 5.86381C17.3769 4.96763 17.9652 4.37937 18.8354 4.05925C20.0371 4.92456 21.0811 5.96781 21.9359 7.15569C21.6182 8.04537 21.0316 8.63037 20.1663 8.94563Z" fill="currentColor"></path>
    </g>
    <defs>
      <clipPath id="clip0_1_121">
        <rect width="26" height="26" fill="white"></rect>
      </clipPath>
    </defs>
  </symbol>
  <symbol fill="none" xmlns="http://www.w3.org/2000/svg" viewBox="0 0 26 26" id="lock">
    <path d="M20.3125 10.5625V7.3125C20.3125 3.27356 17.0389 0 13 0C8.96106 0 5.6875 3.27356 5.6875 7.3125V10.5625C4.34119 10.5625 3.25 11.6537 3.25 13V18.6875C3.25 22.7264 6.52356 26 10.5625 26H15.4375C19.4764 26 22.75 22.7264 22.75 18.6875V13C22.75 11.6529 21.658 10.5625 20.3125 10.5625ZM7.3125 7.3125C7.3125 4.17138 9.85888 1.625 13 1.625C16.1411 1.625 18.6875 4.17138 18.6875 7.3125V10.5625H17.0625V7.31413C17.0625 5.07 15.2441 3.25162 13 3.25162C10.7559 3.25162 8.9375 5.07 8.9375 7.31413V10.5625H7.3125V7.3125ZM16.25 7.3125V10.5625H9.75V7.3125C9.75 5.51769 11.2052 4.0625 13 4.0625C14.7948 4.0625 16.25 5.51769 16.25 7.3125ZM21.125 15.4375V18.6875C21.125 21.8229 18.5729 24.375 15.4375 24.375H10.5625C7.42706 24.375 4.875 21.8229 4.875 18.6875V13C4.875 12.5515 5.239 12.1875 5.6875 12.1875C6.22944 12.1875 6.77056 12.1875 7.3125 12.1875H18.6875C19.2286 12.1875 19.7698 12.1875 20.3125 12.1875C20.7602 12.1875 21.125 12.5515 21.125 13V15.4375ZM13 15.4375C13.897 15.4375 14.625 16.1647 14.625 17.0625C14.625 17.5573 14.3585 18.499 14.0839 19.2416C13.8621 19.8412 13.6354 20.3109 13 20.3109C12.4158 20.3109 12.1379 19.8364 11.9169 19.2335C11.6456 18.4925 11.375 17.5557 11.375 17.0625C11.375 16.1647 12.103 15.4375 13 15.4375Z" fill="currentColor"></path>
  </symbol>
  <symbol fill="none" xmlns="http://www.w3.org/2000/svg" viewBox="0 0 26 26" id="profile">
    <g clip-path="url(#clip0_1_113)">
      <path d="M25.277 23.023C25.1137 22.9149 22.1505 20.9714 17.7427 20.0176C19.3596 17.9692 20.398 15.2141 20.8392 13.3802C21.4518 10.8387 21.2137 5.86625 18.773 2.76737C17.3462 0.956312 15.3499 0 13.0002 0C10.6504 0 8.6541 0.957125 7.22816 2.76737C4.78741 5.86544 4.55016 10.8379 5.16197 13.3794C5.60316 15.2132 6.64072 17.9684 8.25841 20.0168C3.8506 20.9706 0.887409 22.9141 0.724909 23.0222C0.129346 23.4187 -0.137154 24.1597 0.0708464 24.8438C0.277221 25.5304 0.910159 26 1.62516 26H24.3752C25.091 26 25.7223 25.5304 25.9303 24.8446C26.1391 24.1605 25.8726 23.4195 25.277 23.023ZM16.4671 19.0109L16.2022 19.3472C14.2644 21.5735 11.7375 21.5735 9.80053 19.3472L9.53485 19.0109C7.27203 16.1436 6.14916 12.3508 6.6326 8.73275C7.07541 5.25606 9.06766 1.625 13.0002 1.625C16.9327 1.625 18.9257 5.25688 19.3685 8.73356C19.8503 12.3532 18.7315 16.1419 16.4671 19.0109ZM1.62516 24.375C1.73728 24.3002 4.49003 22.4949 8.60128 21.606L10.6195 21.1697C11.3402 21.6426 12.1308 21.9375 13.0002 21.9375C13.8703 21.9375 14.6601 21.6426 15.3808 21.1697L17.399 21.606C21.4778 22.4884 24.2208 24.2734 24.3752 24.375H1.62516Z" fill="currentColor"></path>
    </g>
    <defs>
      <clipPath id="clip0_1_113">
        <rect width="26" height="26" fill="white"></rect>
      </clipPath>
    </defs>
  </symbol>
</svg>
