<svg width="26" height="26" viewBox="0 0 26 26" fill="none" xmlns="http://www.w3.org/2000/svg">
<g clip-path="url(#clip0_1_128)">
<path d="M25.9716 12.818C25.9634 12.7839 25.9683 12.7473 25.9553 12.714C25.9504 12.7002 25.9383 12.6929 25.9334 12.6799C25.9253 12.6604 25.9269 12.6384 25.9163 12.6197C23.5601 8.10955 18.4308 4.87823 13.0195 4.87823C7.60744 4.87823 2.47894 8.10467 0.121063 12.614C0.1105 12.6327 0.112125 12.6547 0.104 12.6742C0.098313 12.6872 0.086938 12.6945 0.082063 12.7083C0.069063 12.7416 0.0739379 12.7782 0.065813 12.8123C0.051188 12.8732 0.0373755 12.9317 0.0373755 12.9943C0.0373755 13.0569 0.0520004 13.1145 0.065813 13.1763C0.0739379 13.2104 0.069063 13.247 0.082063 13.2803C0.086938 13.2941 0.0991255 13.3014 0.104 13.3144C0.112125 13.3339 0.1105 13.3559 0.121063 13.3745C2.47813 17.8847 7.60744 21.116 13.0195 21.116C18.4308 21.116 23.5601 17.8896 25.9163 13.3802C25.9277 13.3615 25.9261 13.3396 25.9334 13.3201C25.9383 13.3071 25.9504 13.2998 25.9553 13.286C25.9683 13.2527 25.9634 13.2161 25.9716 13.182C25.9854 13.1202 26 13.0617 26 13C26 12.9382 25.9854 12.8789 25.9716 12.818ZM13.0187 19.4902C8.4565 19.4902 3.99019 16.8975 1.76475 12.9943C4.00238 9.08617 8.46219 6.50242 13.0187 6.50242C17.5793 6.50242 22.0464 9.09592 24.2718 12.9984C22.0342 16.9073 17.5752 19.4902 13.0187 19.4902ZM13.0187 9.74917C13.2429 9.74917 13.4233 9.93036 13.4233 10.1554C13.4233 10.3789 13.2421 10.5609 13.0187 10.5609V10.5617C11.6748 10.5617 10.582 11.6545 10.582 12.9967C10.582 13.221 10.4 13.403 10.1766 13.403C9.95313 13.403 9.77031 13.221 9.77031 12.9967C9.77031 11.2052 11.2223 9.75323 13.0138 9.74998C13.0154 9.74998 13.0171 9.74917 13.0187 9.74917ZM13 7.31248C9.85806 7.31248 7.3125 9.85886 7.3125 13C7.3125 16.1411 9.85888 18.6875 13 18.6875C16.1403 18.6875 18.6875 16.1403 18.6875 13C18.6875 9.85805 16.1403 7.31248 13 7.31248ZM13 17.875C10.3114 17.875 8.125 15.6885 8.125 13C8.125 10.3114 10.3114 8.12498 13 8.12498C15.6886 8.12498 17.875 10.3114 17.875 13C17.875 15.6885 15.6886 17.875 13 17.875Z" fill="#4F4F4F"/>
</g>
<defs>
<clipPath id="clip0_1_128">
<rect width="26" height="26" fill="white"/>
</clipPath>
</defs>
</svg>
