<svg width="32" height="32" viewBox="0 0 32 32" fill="none" xmlns="http://www.w3.org/2000/svg">
<path d="M15.962 31.9903C24.5889 31.9903 31.5823 24.8312 31.5823 16C31.5823 7.1688 24.5889 0.00970268 15.962 0.00970268C7.33512 0.00970268 0.34166 7.1688 0.34166 16C0.34166 24.8312 7.33512 31.9903 15.962 31.9903Z" fill="#9E8CFC"/>
<path d="M11.0497 30.179C11.6887 30.3997 13.8346 31.1058 13.9259 30.4154C13.9754 30.0365 12.8429 29.6483 11.3096 28.8264C9.12893 27.6602 7.13397 26.1688 5.39166 24.4022C2.84854 21.879 1.38622 18.4463 1.31948 14.8431C1.18952 10.0056 3.05851 6.09491 6.13276 3.57128C2.37333 6.50736 0.122496 11.002 0.00592228 15.8059C-0.0853614 19.3048 0.881627 22.2527 2.69802 24.936C3.26205 25.6732 3.92137 26.3303 4.6583 26.8898C6.39888 28.2221 8.94399 29.4541 11.0497 30.1774" fill="white"/>
<path d="M31.7974 12.3351C30.8289 7.72619 27.8181 4.49964 23.7907 2.22023C26.8774 4.43858 31.2095 9.15551 28.6489 13.3167C26.4828 16.6497 21.2224 15.9969 18.3369 14.4126C14.9146 12.5339 10.632 8.307 14.8558 4.17557C17.5943 1.50165 26.3049 4.49964 24.7717 8.49643C23.8774 10.8212 20.3962 10.3046 18.8305 9.16804C17.6763 8.32892 16.7047 6.88707 17.2199 5.39825C17.3839 4.92076 17.3607 4.18027 16.6938 4.72507C16.2018 5.13211 15.9465 5.80216 15.8599 6.42837C15.1312 11.64 24.3075 15.6806 27.0305 10.6381C28.4431 8.02051 26.1533 4.21941 23.2709 2.66327C21.1048 1.48913 18.8506 0.664094 16.0873 0.864481C11.6686 1.17759 7.96153 3.97988 7.49583 8.54809C7.03168 13.0881 10.0317 17.1741 13.5639 19.6179C17.2771 22.1854 22.2683 23.8777 26.8356 22.3466C30.9294 20.9737 32.6205 16.2192 31.7974 12.3382" fill="white"/>
</svg>
